# Blender v2.91.2 OBJ File: 'Dagger.blend'
# www.blender.org
mtllib Dagger.mtl
o Dagger_Dagger_Geometry
v -0.426947 0.820898 -0.728913
v -0.426947 -0.319122 -0.728913
v -0.426947 0.820898 0.548778
v -0.426947 -0.319122 0.548778
v 0.395149 0.820898 -0.728913
v 0.395149 -0.319122 -0.728913
v 0.395149 0.820898 0.548778
v 0.395149 -0.319122 0.548778
v -0.224815 0.540598 -1.391447
v -0.224815 -0.038822 -1.391447
v -0.224815 0.540598 1.211312
v -0.224815 -0.038822 1.211312
v 0.193018 0.540598 -1.391447
v 0.193018 -0.038822 -1.391447
v 0.193018 0.540598 1.211312
v 0.193018 -0.038822 1.211312
v -0.175248 0.471862 2.542924
v -0.175248 0.029915 2.542924
v 0.143451 0.029915 2.542924
v 0.143451 0.471862 2.542924
v -0.175248 0.029915 -2.723059
v -0.175248 0.471862 -2.723059
v 0.143451 0.471862 -2.723059
v 0.143451 0.029915 -2.723059
v -0.369644 0.390289 2.935295
v -0.369644 -0.051658 2.935295
v -0.050945 -0.051658 2.935295
v -0.050945 0.390289 2.935295
v -0.369644 -0.051658 -3.051566
v -0.369644 0.390289 -3.051566
v -0.050945 0.390289 -3.051566
v -0.050945 -0.051658 -3.051566
v -0.509523 0.169316 3.170950
v -0.515409 0.169316 -3.287221
v -5.453003 -0.349319 -0.508040
v -5.453003 -0.349319 0.378339
v -6.420352 -0.349319 -0.508040
v -6.420352 -0.349319 0.378339
v -5.453003 -0.125863 0.601795
v -5.453003 0.665009 0.601795
v -5.453003 0.665009 -0.731497
v -5.453003 -0.125863 -0.731497
v -6.420352 -0.125863 0.601795
v -6.420352 0.665009 0.601795
v -6.420352 0.665009 -0.731497
v -6.420352 -0.125863 -0.731497
v -6.138546 -0.099066 -2.418234
v -6.138546 -0.889937 -2.418234
v -7.105895 -0.889937 -2.418234
v -7.105895 -0.099066 -2.418234
v -6.138546 -0.889937 2.419251
v -6.138546 -0.099066 2.419251
v -7.105895 -0.099066 2.419251
v -7.105895 -0.889937 2.419251
v -6.194973 -0.434684 -2.648297
v -6.194973 -1.113032 -2.648297
v -7.049469 -1.133291 -2.648297
v -7.049469 -0.434684 -2.648297
v -6.194973 -1.133291 2.649314
v -6.194973 -0.434684 2.649314
v -7.049469 -0.434684 2.649314
v -7.049469 -1.133291 2.649314
v -6.194973 0.753996 -3.663378
v -6.194973 0.653094 -3.663378
v -7.049469 0.653094 -3.663378
v -7.049469 0.753996 -3.663378
v -6.194973 0.653094 3.664395
v -6.194973 0.753996 3.664395
v -7.049469 0.753996 3.664395
v -7.049469 0.653094 3.664395
v -6.194973 0.753996 -3.814045
v -6.194973 0.653094 -3.814045
v -7.049469 0.653094 -3.814045
v -7.049469 0.753996 -3.814045
v -6.194973 0.653094 3.814675
v -6.194973 0.753996 3.814675
v -7.049469 0.753996 3.814675
v -6.404656 0.124764 -1.129682
v -6.404656 0.124764 0.999980
v -6.404656 0.414382 0.999980
v -6.404656 0.414382 -1.129682
v -16.460501 0.124764 -1.129682
v -16.460501 0.124764 0.999980
v -16.460501 0.414382 0.999980
v -16.460501 0.414382 -1.129682
v -18.539667 0.323892 -0.048901
v -5.453003 0.888466 -0.508040
v -6.420352 0.888466 0.378339
v -6.420352 0.888466 -0.508040
v -5.453003 0.888466 0.378339
v -7.049469 0.653094 3.814675
v -5.645658 0.983503 0.201810
v -5.645658 0.983503 -0.331512
v -6.227698 0.983503 0.201810
v -6.227698 0.983503 -0.331512
v -5.453003 0.774782 -0.508040
v -6.420352 0.774782 -0.508040
v -6.420352 0.774782 0.378339
v -5.453003 0.774782 0.378339
v -6.420352 0.774782 -0.731497
v -6.420352 0.774782 0.601795
v -5.453003 0.774782 0.601795
v -16.460501 0.541169 0.014898
v -6.404656 0.541169 0.098572
v -0.627517 2.367016 -0.638173
v -6.410906 -0.340234 0.605680
v -6.410906 -0.340234 -0.731713
v -5.448699 -0.317426 0.605680
v -5.448699 -0.317426 -0.731713
v -5.448699 0.773493 -0.731713
v -0.268980 0.422042 -0.488448
v -0.268980 0.740906 -0.169584
v -0.268980 -0.081766 -0.169584
v -0.268980 0.237098 -0.488448
v -0.268980 0.740906 0.114707
v -0.268980 0.422042 0.433572
v -0.268980 0.237098 0.433572
v -0.268980 -0.081766 0.114707
v -5.488334 0.422042 0.433572
v -5.488334 0.740906 0.114707
v -5.488334 -0.081766 0.114707
v -5.488334 0.237098 0.433572
v -5.488334 0.740906 -0.169584
v -5.488334 0.422042 -0.488448
v -5.488334 0.237098 -0.488448
v -5.488334 -0.081766 -0.169584
v -6.420352 0.888466 0.378339
v -5.453003 0.888466 0.378339
vt 0.902537 0.257403
vt 0.902537 0.545735
vt 0.886832 0.545735
vt 0.886832 0.257403
vt 0.629387 0.174454
vt 0.681137 0.173588
vt 0.688058 0.223576
vt 0.629854 0.224487
vt 0.861920 0.545735
vt 0.851704 0.545735
vt 0.851704 0.257403
vt 0.861921 0.257403
vt 0.962576 0.545735
vt 0.962576 0.257403
vt 0.978281 0.257403
vt 0.978281 0.545735
vt 0.626116 0.140419
vt 0.680796 0.138234
vt 0.700248 0.267000
vt 0.731519 0.211660
vt 0.742171 0.237327
vt 0.623031 0.270188
vt 0.693264 0.079771
vt 0.728627 0.106220
vt 0.721452 0.144318
vt 0.585894 0.175821
vt 0.580584 0.147251
vt 0.723019 0.173594
vt 0.611302 0.073496
vt 0.565300 0.107948
vt 0.582979 0.245640
vt 0.588322 0.216221
vt 0.811725 0.160272
vt 0.819035 0.186759
vt 0.808126 0.141187
vt 0.811756 0.116392
vt 0.824731 0.206716
vt 0.492133 0.216838
vt 0.493184 0.187857
vt 0.491856 0.237760
vt 0.491814 0.167112
vt 0.479793 0.142454
vt 0.832840 0.156223
vt 0.838777 0.172459
vt 0.827773 0.146599
vt 0.836551 0.127046
vt 0.845670 0.188244
vt 0.471796 0.207685
vt 0.472975 0.189565
vt 0.469846 0.225494
vt 0.475771 0.178106
vt 0.460699 0.160247
vt 0.850190 0.156485
vt 0.455196 0.194813
vt 0.246618 0.454008
vt 0.165073 0.401366
vt 0.171688 0.599295
vt 0.234518 0.559797
vt 0.380245 0.490256
vt 0.378202 0.528744
vt 0.388468 0.520656
vt 0.389271 0.499628
vt 0.373457 0.484750
vt 0.373359 0.533330
vt 0.429267 0.540515
vt 0.423424 0.534327
vt 0.269605 0.557765
vt 0.267284 0.743967
vt 0.336784 0.730126
vt 0.330229 0.551857
vt 0.181893 0.614946
vt 0.225491 0.757155
vt 0.108570 0.608241
vt 0.163971 0.783521
vt 0.425310 0.760578
vt 0.426797 0.563408
vt 0.317702 0.462378
vt 0.338333 0.257975
vt 0.267186 0.246151
vt 0.269654 0.455959
vt 0.431651 0.452919
vt 0.437040 0.224683
vt 0.177627 0.385297
vt 0.224706 0.231764
vt 0.163975 0.205431
vt 0.104332 0.389844
vt 0.261002 0.757301
vt 0.311071 0.765632
vt 0.238890 0.766610
vt 0.203140 0.792228
vt 0.412850 0.787469
vt 0.312016 0.222315
vt 0.260063 0.232616
vt 0.415609 0.183402
vt 0.238363 0.222181
vt 0.202716 0.197299
vt 0.344763 0.934908
vt 0.354088 0.940938
vt 0.237786 0.971060
vt 0.230834 0.980382
vt 0.437040 0.943643
vt 0.341602 0.039841
vt 0.333092 0.046574
vt 0.423286 0.031289
vt 0.233978 0.026835
vt 0.226576 0.011995
vt 0.350251 0.956966
vt 0.342014 0.949918
vt 0.247662 0.985098
vt 0.253967 0.999932
vt 0.240657 0.990913
vt 0.436701 0.958886
vt 0.246202 0.000068
vt 0.335125 0.024012
vt 0.327165 0.033354
vt 0.248944 0.011495
vt 0.983553 0.646059
vt 0.983319 0.701237
vt 0.674243 0.705083
vt 0.674294 0.644903
vt 0.673684 0.774828
vt 0.610015 0.708514
vt 0.570946 0.594879
vt 0.593421 0.594879
vt 0.593421 0.904175
vt 0.570946 0.904175
vt 0.570729 0.976250
vt 0.548255 0.976250
vt 0.548255 0.666954
vt 0.570729 0.666954
vt 0.981521 0.808605
vt 0.981515 0.937715
vt 0.672219 0.937664
vt 0.672224 0.808555
vt 0.607978 0.874066
vt 0.563707 0.594879
vt 0.421837 0.014230
vt 0.413145 0.522501
vt 0.413932 0.499965
vt 0.422678 0.533256
vt 0.424971 0.490628
vt 0.373024 0.545806
vt 0.428150 0.553340
vt 0.434161 0.480813
vt 0.432903 0.464650
vt 0.373200 0.470547
vt 0.982988 0.776363
vt 0.586398 0.975802
vt 0.000068 0.407456
vt 0.006663 0.604779
vt 0.371593 0.545202
vt 0.372062 0.471324
vt 0.426028 0.489605
vt 0.826792 0.545735
vt 0.826792 0.257403
vt 0.927448 0.257403
vt 0.927448 0.545735
vt 0.937665 0.545735
vt 0.937665 0.257403
vt 0.437175 0.126774
vt 0.437175 0.000068
vt 0.439386 0.000068
vt 0.439386 0.126774
vn 0.0000 -1.0000 0.0000
vn -1.0000 0.0000 0.0000
vn 0.0000 0.0000 1.0000
vn 0.0000 1.0000 0.0000
vn 0.0000 0.9210 0.3896
vn 0.9565 0.0000 0.2918
vn 0.0000 -0.9210 -0.3896
vn -0.9565 0.0000 0.2918
vn 0.9565 0.0000 -0.2918
vn 0.0000 0.9210 -0.3896
vn 0.0000 -0.9210 0.3896
vn -0.9565 0.0000 -0.2918
vn -0.9993 0.0000 0.0372
vn 0.0000 -0.9987 0.0516
vn 0.9993 0.0000 0.0372
vn 0.0000 0.9987 0.0516
vn -0.9993 0.0000 -0.0372
vn 0.0000 0.9987 -0.0516
vn 0.9993 0.0000 -0.0372
vn 0.0000 -0.9987 -0.0516
vn -0.8961 0.0000 -0.4439
vn 0.0000 -0.9791 -0.2035
vn 0.8961 0.0000 0.4439
vn 0.0000 0.9791 0.2035
vn -0.8606 0.0000 0.5093
vn 0.0000 0.9705 -0.2410
vn 0.8606 0.0000 -0.5093
vn 0.0000 -0.9705 0.2410
vn -0.8599 0.0000 -0.5104
vn 0.0000 -0.7295 0.6840
vn 0.4571 0.0000 0.8894
vn 0.0000 0.7295 0.6840
vn -0.8505 0.0000 0.5260
vn 0.0000 0.7295 -0.6840
vn 0.4525 0.0000 -0.8918
vn 0.0000 -0.7295 -0.6840
vn 0.0237 -0.9997 0.0000
vn 0.4424 0.8968 0.0000
vn 1.0000 0.0000 0.0000
vn 0.0000 0.0000 -1.0000
vn 0.9264 0.0000 -0.3765
vn 0.0000 -0.9109 0.4126
vn -0.9264 0.0000 0.3765
vn 0.0000 0.9109 -0.4126
vn 0.9357 0.0000 0.3529
vn 0.0000 0.9218 0.3876
vn -0.9357 0.0000 -0.3529
vn 0.0000 -0.9218 -0.3876
vn 0.9712 0.0000 -0.2382
vn 0.0078 -0.7022 0.7119
vn -0.9712 0.0000 -0.2382
vn 0.0000 0.5654 -0.8248
vn 0.9712 0.0000 0.2382
vn 0.0000 0.5654 0.8248
vn -0.9712 0.0000 0.2382
vn 0.0000 -0.6870 -0.7267
vn 0.0059 -0.4962 -0.8682
vn 0.0000 0.6494 0.7605
vn 0.0000 0.6494 -0.7605
vn 0.0000 -0.4940 0.8694
vn -0.0006 0.9911 0.1332
vn -0.1000 0.9889 -0.1095
vn -0.0953 -0.9954 0.0000
vn -0.4612 0.0000 -0.8873
vn 0.0000 0.8805 -0.4740
vn 0.0000 0.8805 0.4740
vn -0.4424 0.8968 0.0000
vn 0.0007 1.0000 -0.0029
vn -0.0001 -0.0010 -1.0000
vn 0.0004 0.9943 -0.1063
vn -0.1069 0.9861 0.1269
vn -0.4504 0.0000 0.8928
vn -1.0000 -0.0085 0.0000
vn 1.0000 0.0020 0.0016
vn -0.0002 0.0191 0.9998
vn -0.0000 0.0011 -1.0000
vn 0.0000 0.7071 0.7071
vn 0.0000 -0.7071 -0.7071
vn 0.0000 -0.7071 0.7071
vn 0.0000 0.7071 -0.7071
usemtl Material.001
s off
f 126/1/1 113/2/1 118/3/1 121/4/1
f 2/5/2 4/6/2 3/7/2 1/8/2
f 117/9/3 116/10/3 119/11/3 122/12/3
f 112/13/4 123/14/4 120/15/4 115/16/4
f 4/6/1 2/5/1 6/17/1 8/18/1
f 7/19/5 3/7/5 11/20/5 15/21/5
f 1/8/4 3/7/4 7/19/4 5/22/4
f 8/18/6 7/23/6 15/24/6 16/25/6
f 6/17/7 2/5/7 10/26/7 14/27/7
f 3/7/8 4/6/8 12/28/8 11/20/8
f 5/29/9 6/17/9 14/27/9 13/30/9
f 1/8/10 5/22/10 13/31/10 9/32/10
f 4/6/11 8/18/11 16/25/11 12/28/11
f 2/5/12 1/8/12 9/32/12 10/26/12
f 12/28/13 18/33/13 17/34/13 11/20/13
f 16/25/14 19/35/14 18/33/14 12/28/14
f 15/24/15 20/36/15 19/35/15 16/25/15
f 11/20/16 17/34/16 20/37/16 15/21/16
f 9/32/17 22/38/17 21/39/17 10/26/17
f 13/31/18 23/40/18 22/38/18 9/32/18
f 14/27/19 24/41/19 23/42/19 13/30/19
f 10/26/20 21/39/20 24/41/20 14/27/20
f 18/33/21 26/43/21 25/44/21 17/34/21
f 19/35/22 27/45/22 26/43/22 18/33/22
f 20/36/23 28/46/23 27/45/23 19/35/23
f 17/34/24 25/44/24 28/47/24 20/37/24
f 22/38/25 30/48/25 29/49/25 21/39/25
f 23/40/26 31/50/26 30/48/26 22/38/26
f 24/41/27 32/51/27 31/52/27 23/42/27
f 21/39/28 29/49/28 32/51/28 24/41/28
f 26/43/29 33/53/29 25/44/29
f 27/45/30 33/53/30 26/43/30
f 28/46/31 33/53/31 27/45/31
f 25/44/32 33/53/32 28/47/32
f 30/48/33 34/54/33 29/49/33
f 31/50/34 34/54/34 30/48/34
f 32/51/35 34/54/35 31/52/35
f 29/49/36 34/54/36 32/51/36
f 108/55/37 106/56/37 107/57/37 109/58/37
f 90/59/38 87/60/38 93/61/38 92/62/38
f 90/59/39 99/63/39 96/64/39 87/60/39
f 97/65/40 89/66/40 87/60/40 96/64/40
f 42/67/41 48/68/41 47/69/41 41/70/41
f 46/71/42 49/72/42 48/68/42 42/67/42
f 45/73/43 50/74/43 49/72/43 46/71/43
f 41/70/44 47/69/44 50/75/44 45/76/44
f 40/77/45 52/78/45 51/79/45 39/80/45
f 44/81/46 53/82/46 52/78/46 40/77/46
f 43/83/47 54/84/47 53/85/47 44/86/47
f 39/80/48 51/79/48 54/84/48 43/83/48
f 48/68/49 56/87/49 55/88/49 47/69/49
f 49/72/50 57/89/50 56/87/50 48/68/50
f 50/74/51 58/90/51 57/89/51 49/72/51
f 47/69/52 55/88/52 58/91/52 50/75/52
f 52/78/53 60/92/53 59/93/53 51/79/53
f 53/82/54 61/94/54 60/92/54 52/78/54
f 54/84/55 62/95/55 61/96/55 53/85/55
f 51/79/56 59/93/56 62/95/56 54/84/56
f 56/87/39 64/97/39 63/98/39 55/88/39
f 57/89/57 65/99/57 64/97/57 56/87/57
f 58/90/2 66/100/2 65/99/2 57/89/2
f 55/88/58 63/98/58 66/101/58 58/91/58
f 60/92/39 68/102/39 67/103/39 59/93/39
f 61/94/59 69/104/59 68/102/59 60/92/59
f 62/95/2 70/105/2 69/106/2 61/96/2
f 59/93/60 67/103/60 70/105/60 62/95/60
f 71/107/40 72/108/40 73/109/40 74/110/40
f 64/97/39 72/108/39 71/107/39 63/98/39
f 65/99/1 73/109/1 72/108/1 64/97/1
f 66/100/2 74/111/2 73/109/2 65/99/2
f 63/98/4 71/107/4 74/112/4 66/101/4
f 77/113/40 76/114/40 75/115/40 91/116/40
f 68/102/2 67/103/2 75/115/2 76/114/2
f 80/117/61 104/118/61 103/119/61 84/120/61
f 103/119/62 85/121/62 86/122/62
f 79/123/3 80/124/3 84/125/3 83/126/3
f 81/127/40 78/128/40 82/129/40 85/130/40
f 78/131/1 79/132/1 83/133/1 82/134/1
f 82/134/63 83/133/63 86/135/63
f 85/130/64 82/129/64 86/136/64
f 70/105/39 69/106/39 77/113/39 91/116/39
f 67/103/4 70/105/4 91/116/4 75/115/4
f 69/104/1 68/102/1 76/114/1 77/137/1
f 92/62/4 93/61/4 95/138/4 94/139/4
f 87/60/65 89/140/65 95/138/65 93/61/65
f 88/141/66 90/59/66 92/62/66 94/139/66
f 89/140/67 88/141/67 94/139/67 95/138/67
f 97/65/68 96/64/68 110/142/68 100/143/68
f 99/63/4 98/144/4 101/145/4 102/146/4
f 44/81/3 40/77/3 102/146/3 101/145/3
f 41/70/69 45/76/69 100/143/69 110/142/69
f 103/119/70 104/118/70 81/147/70 85/121/70
f 84/120/71 103/119/71 86/122/71
f 83/126/72 84/125/72 86/148/72
f 106/56/73 101/149/73 100/150/73 107/57/73
f 109/58/74 110/151/74 102/152/74 108/55/74
f 39/80/75 43/83/75 106/56/75 108/55/75
f 109/58/76 107/57/76 46/71/76 42/67/76
f 99/63/3 90/59/3 88/153/3 98/144/3
f 88/153/2 89/66/2 97/65/2 98/144/2
f 115/154/77 120/155/77 119/11/77 116/10/77
f 113/2/78 126/1/78 125/156/78 114/157/78
f 121/4/79 118/3/79 117/9/79 122/12/79
f 123/14/80 112/13/80 111/158/80 124/159/80
f 125/156/40 124/159/40 111/158/40 114/157/40
f 6/17/39 5/29/39 7/23/39 8/18/39
f 88/160/3 90/161/3 128/162/3 127/163/3
