# Blender v2.90.0 OBJ File: 'Dagger.blend'
# www.blender.org
mtllib Dagger.mtl
o Cube
v -0.426947 0.820898 -0.728913
v -0.426947 -0.319122 -0.728913
v -0.426947 0.820898 0.548778
v -0.426947 -0.319122 0.548778
v 0.395149 0.820898 -0.728913
v 0.395149 -0.319122 -0.728913
v 0.395149 0.820898 0.548778
v 0.395149 -0.319122 0.548778
v -0.224815 0.540598 -1.391447
v -0.224815 -0.038822 -1.391447
v -0.224815 0.540598 1.211312
v -0.224815 -0.038822 1.211312
v 0.193018 0.540598 -1.391447
v 0.193018 -0.038822 -1.391447
v 0.193018 0.540598 1.211312
v 0.193018 -0.038822 1.211312
v -0.175248 0.471862 2.542924
v -0.175248 0.029915 2.542924
v 0.143451 0.029915 2.542924
v 0.143451 0.471862 2.542924
v -0.175248 0.029915 -2.723059
v -0.175248 0.471862 -2.723059
v 0.143451 0.471862 -2.723059
v 0.143451 0.029915 -2.723059
v -0.369644 0.390289 2.935295
v -0.369644 -0.051658 2.935295
v -0.050945 -0.051658 2.935295
v -0.050945 0.390289 2.935295
v -0.369644 -0.051658 -3.051566
v -0.369644 0.390289 -3.051566
v -0.050945 0.390289 -3.051566
v -0.050945 -0.051658 -3.051566
v -0.509523 0.169316 3.170950
v -0.515409 0.169316 -3.287221
v -5.453003 -0.349319 -0.508040
v -5.453003 -0.349319 0.378339
v -6.420352 -0.349319 -0.508040
v -6.420352 -0.349319 0.378339
v -5.453003 -0.125863 0.601795
v -5.453003 0.665009 0.601795
v -5.453003 0.665009 -0.731497
v -5.453003 -0.125863 -0.731497
v -6.420352 -0.125863 0.601795
v -6.420352 0.665009 0.601795
v -6.420352 0.665009 -0.731497
v -6.420352 -0.125863 -0.731497
v -6.138546 -0.099066 -2.418234
v -6.138546 -0.889937 -2.418234
v -7.105895 -0.889937 -2.418234
v -7.105895 -0.099066 -2.418234
v -6.138546 -0.889937 2.419251
v -6.138546 -0.099066 2.419251
v -7.105895 -0.099066 2.419251
v -7.105895 -0.889937 2.419251
v -6.194973 -0.434684 -2.648297
v -6.194973 -1.113032 -2.648297
v -7.049469 -1.133291 -2.648297
v -7.049469 -0.434684 -2.648297
v -6.194973 -1.133291 2.649314
v -6.194973 -0.434684 2.649314
v -7.049469 -0.434684 2.649314
v -7.049469 -1.133291 2.649314
v -6.194973 0.753996 -3.663378
v -6.194973 0.653094 -3.663378
v -7.049469 0.653094 -3.663378
v -7.049469 0.753996 -3.663378
v -6.194973 0.653094 3.664395
v -6.194973 0.753996 3.664395
v -7.049469 0.753996 3.664395
v -7.049469 0.653094 3.664395
v -6.194973 0.753996 -3.814045
v -6.194973 0.653094 -3.814045
v -7.049469 0.653094 -3.814045
v -7.049469 0.753996 -3.814045
v -6.194973 0.653094 3.814675
v -6.194973 0.753996 3.814675
v -7.049469 0.753996 3.814675
v -6.379877 0.124764 -1.129682
v -6.379877 0.124764 0.999980
v -6.379877 0.414382 0.999980
v -6.379877 0.414382 -1.129682
v -16.435720 0.124764 -1.129682
v -16.435720 0.124764 0.999980
v -16.435720 0.414382 0.999980
v -16.435720 0.414382 -1.129682
v -18.514887 0.323892 -0.048901
v -5.453003 0.888466 -0.508040
v -6.420352 0.888466 0.378339
v -6.420352 0.888466 -0.508040
v -5.453003 0.888466 0.378339
v -7.049469 0.653094 3.814675
v -5.645658 0.983503 0.201810
v -5.645658 0.983503 -0.331512
v -6.227698 0.983503 0.201810
v -6.227698 0.983503 -0.331512
v -5.453003 0.774782 -0.508040
v -6.420352 0.774782 -0.508040
v -6.420352 0.774782 0.378339
v -5.453003 0.774782 0.378339
v -6.420352 0.774782 -0.731497
v -6.420352 0.774782 0.601795
v -5.453003 0.774782 0.601795
v -16.435720 0.541169 0.014898
v -6.379877 0.541169 0.098572
v -0.627517 2.367016 -0.638173
v -6.410906 -0.340234 0.605680
v -6.410906 -0.340234 -0.731713
v -5.448699 -0.317426 0.605680
v -5.448699 -0.317426 -0.731713
v -5.448699 0.773493 -0.731713
v -0.268980 0.422042 -0.488448
v -0.268980 0.740906 -0.169584
v -0.268980 -0.081766 -0.169584
v -0.268980 0.237098 -0.488448
v -0.268980 0.740906 0.114707
v -0.268980 0.422042 0.433572
v -0.268980 0.237098 0.433572
v -0.268980 -0.081766 0.114707
v -5.488334 0.422042 0.433572
v -5.488334 0.740906 0.114707
v -5.488334 -0.081766 0.114707
v -5.488334 0.237098 0.433572
v -5.488334 0.740906 -0.169584
v -5.488334 0.422042 -0.488448
v -5.488334 0.237098 -0.488448
v -5.488334 -0.081766 -0.169584
vt 0.125000 0.586458
vt 0.375000 0.586458
vt 0.375000 0.663542
vt 0.125000 0.663542
vt 0.375000 0.500000
vt 0.375000 0.750000
vt 0.625000 0.750000
vt 0.625000 0.500000
vt 0.471899 0.750000
vt 0.528101 0.750000
vt 0.528101 1.000000
vt 0.471899 1.000000
vt 0.625000 0.586458
vt 0.875000 0.586458
vt 0.875000 0.663542
vt 0.625000 0.663542
vt 0.375000 0.500000
vt 0.375000 0.750000
vt 0.625000 0.500000
vt 0.625000 0.750000
vt 0.625000 0.750000
vt 0.625000 0.750000
vt 0.375000 0.750000
vt 0.375000 0.500000
vt 0.375000 0.500000
vt 0.375000 0.750000
vt 0.625000 0.500000
vt 0.625000 0.500000
vt 0.375000 0.750000
vt 0.625000 0.750000
vt 0.375000 0.750000
vt 0.625000 0.750000
vt 0.625000 0.500000
vt 0.375000 0.500000
vt 0.625000 0.500000
vt 0.375000 0.500000
vt 0.375000 0.750000
vt 0.625000 0.750000
vt 0.375000 0.750000
vt 0.625000 0.750000
vt 0.625000 0.500000
vt 0.375000 0.500000
vt 0.625000 0.500000
vt 0.375000 0.500000
vt 0.625000 0.750000
vt 0.375000 0.750000
vt 0.375000 0.500000
vt 0.625000 0.500000
vt 0.375000 0.750000
vt 0.375000 0.000000
vt 0.375000 0.250000
vt 0.375000 0.500000
vt 0.875000 0.750000
vt 0.875000 0.500000
vt 0.875000 0.500000
vt 0.875000 0.750000
vt 0.875000 0.750000
vt 0.875000 0.500000
vt 0.875000 0.500000
vt 0.875000 0.500000
vt 0.375000 0.250000
vt 0.375000 0.250000
vt 0.625000 0.250000
vt 0.625000 0.250000
vt 0.375000 0.250000
vt 0.375000 0.250000
vt 0.625000 0.250000
vt 0.625000 0.250000
vt 0.625000 1.000000
vt 0.625000 1.000000
vt 0.375000 1.000000
vt 0.375000 1.000000
vt 0.625000 1.000000
vt 0.625000 1.000000
vt 0.375000 1.000000
vt 0.375000 1.000000
vt 0.375000 0.250000
vt 0.625000 0.250000
vt 0.375000 0.250000
vt 0.625000 0.250000
vt 0.625000 1.000000
vt 0.375000 1.000000
vt 0.625000 1.000000
vt 0.375000 1.000000
vt 0.375000 0.250000
vt 0.625000 0.250000
vt 0.375000 0.250000
vt 0.625000 0.250000
vt 0.625000 1.000000
vt 0.375000 1.000000
vt 0.625000 1.000000
vt 0.375000 1.000000
vt 0.625000 0.250000
vt 0.375000 0.250000
vt 0.375000 0.250000
vt 0.625000 0.250000
vt 0.000000 0.000000
vt 0.000000 0.000000
vt 0.000000 0.000000
vt 0.000000 0.000000
vt 0.375000 1.000000
vt 0.625000 1.000000
vt 0.625000 0.000000
vt 0.625000 0.105816
vt 0.625000 0.115638
vt 0.625000 0.000000
vt 0.625000 0.250000
vt 0.625000 0.115638
vt 0.375000 0.000000
vt 0.375000 0.000000
vt 0.625000 0.250000
vt 0.375000 0.250000
vt 0.375000 0.250000
vt 0.375000 0.250000
vt 0.625000 0.250000
vt 0.625000 1.000000
vt 0.375000 1.000000
vt 0.875000 0.500000
vt 0.875000 0.750000
vt 0.875000 0.750000
vt 0.875000 0.500000
vt 0.875000 0.500000
vt 0.875000 0.750000
vt 0.875000 0.750000
vt 0.875000 0.750000
vt 0.625000 1.000000
vt 0.625000 1.000000
vt 0.625000 0.250000
vt 0.625000 0.250000
vt 0.625000 0.000000
vt 0.375000 0.000000
vt 0.625000 0.000000
vt 0.625000 0.500000
vt 0.625000 0.750000
vt 0.875000 0.750000
vt 0.625000 0.750000
vt 0.125000 0.500000
vt 0.375000 0.500000
vt 0.375000 1.000000
vt 0.375000 0.750000
vt 0.625000 0.500000
vt 0.875000 0.500000
vt 0.471899 0.250000
vt 0.528101 0.250000
vt 0.528101 0.500000
vt 0.471899 0.500000
vn 0.0000 -1.0000 0.0000
vn -1.0000 0.0000 0.0000
vn 0.0000 0.0000 1.0000
vn 0.0000 1.0000 0.0000
vn 1.0000 0.0000 0.0000
vn 0.0000 0.9210 0.3896
vn 0.9565 0.0000 0.2918
vn 0.0000 -0.9210 -0.3896
vn -0.9565 0.0000 0.2918
vn 0.9565 0.0000 -0.2918
vn 0.0000 0.9210 -0.3896
vn 0.0000 -0.9210 0.3896
vn -0.9565 0.0000 -0.2918
vn -0.9993 0.0000 0.0372
vn 0.0000 -0.9987 0.0516
vn 0.9993 0.0000 0.0372
vn 0.0000 0.9987 0.0516
vn -0.9993 0.0000 -0.0372
vn 0.0000 0.9987 -0.0516
vn 0.9993 0.0000 -0.0372
vn 0.0000 -0.9987 -0.0516
vn -0.8961 0.0000 -0.4439
vn 0.0000 -0.9791 -0.2035
vn 0.8961 0.0000 0.4439
vn 0.0000 0.9791 0.2035
vn -0.8606 0.0000 0.5093
vn 0.0000 0.9705 -0.2410
vn 0.8606 0.0000 -0.5093
vn 0.0000 -0.9705 0.2410
vn -0.8599 0.0000 -0.5104
vn 0.0000 -0.7295 0.6840
vn 0.4571 0.0000 0.8894
vn 0.0000 0.7295 0.6840
vn -0.8505 0.0000 0.5260
vn 0.0000 0.7295 -0.6840
vn 0.4525 0.0000 -0.8918
vn 0.0000 -0.7295 -0.6840
vn 0.0237 -0.9997 0.0000
vn 0.4424 0.8968 0.0000
vn 0.0000 0.0000 -1.0000
vn 0.9264 0.0000 -0.3765
vn 0.0000 -0.9109 0.4126
vn -0.9264 0.0000 0.3765
vn 0.0000 0.9109 -0.4126
vn 0.9357 0.0000 0.3529
vn 0.0000 0.9218 0.3876
vn -0.9357 0.0000 -0.3529
vn 0.0000 -0.9218 -0.3876
vn 0.9712 0.0000 -0.2382
vn 0.0078 -0.7022 0.7119
vn -0.9712 0.0000 -0.2382
vn 0.0000 0.5654 -0.8248
vn 0.9712 0.0000 0.2382
vn 0.0000 0.5654 0.8248
vn -0.9712 0.0000 0.2382
vn 0.0000 -0.6870 -0.7267
vn 0.0059 -0.4962 -0.8682
vn 0.0000 0.6494 0.7605
vn 0.0000 0.6494 -0.7605
vn 0.0000 -0.4940 0.8694
vn -0.0006 0.9911 0.1332
vn -0.1000 0.9889 -0.1095
vn -0.0953 -0.9954 0.0000
vn -0.4612 0.0000 -0.8873
vn 0.0000 0.8805 -0.4740
vn 0.0000 0.8805 0.4740
vn -0.4424 0.8968 0.0000
vn 0.0007 1.0000 -0.0029
vn -0.0001 -0.0010 -1.0000
vn 0.0004 0.9943 -0.1063
vn -0.1069 0.9861 0.1269
vn -0.4504 0.0000 0.8928
vn -1.0000 -0.0085 0.0000
vn 1.0000 0.0020 0.0016
vn -0.0002 0.0191 0.9998
vn -0.0000 0.0011 -1.0000
vn 0.0000 0.7071 0.7071
vn 0.0000 -0.7071 -0.7071
vn 0.0000 -0.7071 0.7071
vn 0.0000 0.7071 -0.7071
usemtl Material
s off
f 126/1/1 113/2/1 118/3/1 121/4/1
f 2/5/2 4/6/2 3/7/2 1/8/2
f 117/9/3 116/10/3 119/11/3 122/12/3
f 112/13/4 123/14/4 120/15/4 115/16/4
f 4/6/1 2/5/1 6/17/1 8/18/1
f 6/17/5 5/19/5 7/20/5 8/18/5
f 7/20/6 3/7/6 11/21/6 15/22/6
f 1/8/4 3/7/4 7/20/4 5/19/4
f 8/18/7 7/20/7 15/22/7 16/23/7
f 6/17/8 2/5/8 10/24/8 14/25/8
f 3/7/9 4/6/9 12/26/9 11/21/9
f 5/19/10 6/17/10 14/25/10 13/27/10
f 1/8/11 5/19/11 13/27/11 9/28/11
f 4/6/12 8/18/12 16/23/12 12/26/12
f 2/5/13 1/8/13 9/28/13 10/24/13
f 12/26/14 18/29/14 17/30/14 11/21/14
f 16/23/15 19/31/15 18/29/15 12/26/15
f 15/22/16 20/32/16 19/31/16 16/23/16
f 11/21/17 17/30/17 20/32/17 15/22/17
f 9/28/18 22/33/18 21/34/18 10/24/18
f 13/27/19 23/35/19 22/33/19 9/28/19
f 14/25/20 24/36/20 23/35/20 13/27/20
f 10/24/21 21/34/21 24/36/21 14/25/21
f 18/29/22 26/37/22 25/38/22 17/30/22
f 19/31/23 27/39/23 26/37/23 18/29/23
f 20/32/24 28/40/24 27/39/24 19/31/24
f 17/30/25 25/38/25 28/40/25 20/32/25
f 22/33/26 30/41/26 29/42/26 21/34/26
f 23/35/27 31/43/27 30/41/27 22/33/27
f 24/36/28 32/44/28 31/43/28 23/35/28
f 21/34/29 29/42/29 32/44/29 24/36/29
f 26/37/30 33/45/30 25/38/30
f 27/39/31 33/46/31 26/37/31
f 28/40/32 33/46/32 27/39/32
f 25/38/33 33/45/33 28/40/33
f 30/41/34 34/47/34 29/42/34
f 31/43/35 34/48/35 30/41/35
f 32/44/36 34/48/36 31/43/36
f 29/42/37 34/47/37 32/44/37
f 108/49/38 106/50/38 107/51/38 109/52/38
f 90/53/39 87/54/39 93/55/39 92/56/39
f 90/53/5 99/57/5 96/58/5 87/54/5
f 97/59/40 89/60/40 87/54/40 96/58/40
f 42/61/41 48/62/41 47/63/41 41/64/41
f 46/65/42 49/66/42 48/62/42 42/61/42
f 45/67/43 50/68/43 49/66/43 46/65/43
f 41/64/44 47/63/44 50/68/44 45/67/44
f 40/69/45 52/70/45 51/71/45 39/72/45
f 44/73/46 53/74/46 52/70/46 40/69/46
f 43/75/47 54/76/47 53/74/47 44/73/47
f 39/72/48 51/71/48 54/76/48 43/75/48
f 48/62/49 56/77/49 55/78/49 47/63/49
f 49/66/50 57/79/50 56/77/50 48/62/50
f 50/68/51 58/80/51 57/79/51 49/66/51
f 47/63/52 55/78/52 58/80/52 50/68/52
f 52/70/53 60/81/53 59/82/53 51/71/53
f 53/74/54 61/83/54 60/81/54 52/70/54
f 54/76/55 62/84/55 61/83/55 53/74/55
f 51/71/56 59/82/56 62/84/56 54/76/56
f 56/77/5 64/85/5 63/86/5 55/78/5
f 57/79/57 65/87/57 64/85/57 56/77/57
f 58/80/2 66/88/2 65/87/2 57/79/2
f 55/78/58 63/86/58 66/88/58 58/80/58
f 60/81/5 68/89/5 67/90/5 59/82/5
f 61/83/59 69/91/59 68/89/59 60/81/59
f 62/84/2 70/92/2 69/91/2 61/83/2
f 59/82/60 67/90/60 70/92/60 62/84/60
f 71/93/40 72/94/40 73/95/40 74/96/40
f 64/85/5 72/94/5 71/93/5 63/86/5
f 65/87/1 73/95/1 72/94/1 64/85/1
f 66/88/2 74/96/2 73/95/2 65/87/2
f 63/86/4 71/93/4 74/96/4 66/88/4
f 77/97/40 76/98/40 75/99/40 91/100/40
f 68/89/2 67/90/2 75/101/2 76/102/2
f 80/103/61 104/104/61 103/105/61 84/106/61
f 103/105/62 85/107/62 86/108/62
f 79/109/3 80/103/3 84/106/3 83/110/3
f 81/111/40 78/112/40 82/113/40 85/107/40
f 78/112/1 79/109/1 83/110/1 82/113/1
f 82/113/63 83/110/63 86/114/63
f 85/107/64 82/113/64 86/115/64
f 70/92/5 69/91/5 77/116/5 91/117/5
f 67/90/4 70/92/4 91/117/4 75/101/4
f 69/91/1 68/89/1 76/102/1 77/116/1
f 92/56/4 93/55/4 95/118/4 94/119/4
f 87/54/65 89/60/65 95/118/65 93/55/65
f 88/120/66 90/53/66 92/56/66 94/119/66
f 89/60/67 88/120/67 94/119/67 95/118/67
f 97/59/68 96/58/68 110/121/68 100/122/68
f 99/57/4 98/123/4 101/124/4 102/125/4
f 44/73/3 40/69/3 102/126/3 101/127/3
f 41/64/69 45/67/69 100/128/69 110/129/69
f 103/105/70 104/104/70 81/111/70 85/107/70
f 84/106/71 103/105/71 86/130/71
f 83/110/72 84/106/72 86/131/72
f 106/50/73 101/132/73 100/128/73 107/51/73
f 109/52/74 110/133/74 102/134/74 108/49/74
f 39/72/75 43/75/75 106/50/75 108/49/75
f 109/52/76 107/51/76 46/65/76 42/61/76
f 99/57/3 90/53/3 88/120/3 98/123/3
f 88/120/2 89/60/2 97/59/2 98/123/2
f 115/16/77 120/15/77 119/135/77 116/136/77
f 113/2/78 126/1/78 125/137/78 114/138/78
f 121/139/79 118/140/79 117/9/79 122/12/79
f 123/14/80 112/13/80 111/141/80 124/142/80
f 125/143/40 124/144/40 111/145/40 114/146/40
